<svg width="40" height="41" viewBox="0 0 40 41" fill="none" xmlns="http://www.w3.org/2000/svg">
<g clip-path="url(#clip0_123_66)">
<path fill-rule="evenodd" clip-rule="evenodd" d="M13.3801 0.703491C11.1787 0.703491 9.06761 1.57797 7.51103 3.13454L0 10.6455V14.0836C0 16.5125 1.04336 18.6978 2.70635 20.2157C1.04336 21.7335 0 23.9188 0 26.3478V29.7858L7.51103 37.2968C9.06761 38.8534 11.1787 39.7279 13.3801 39.7279C15.8091 39.7279 17.9943 38.6845 19.5122 37.0215C21.03 38.6845 23.2153 39.7279 25.6443 39.7279C27.8456 39.7279 29.9568 38.8534 31.5134 37.2968L39.0244 29.7858V26.3478C39.0244 23.9188 37.9811 21.7335 36.318 20.2157C37.9811 18.6978 39.0244 16.5125 39.0244 14.0836V10.6455L31.5134 3.13454C29.9568 1.57797 27.8456 0.703491 25.6443 0.703491C23.2153 0.703491 21.03 1.74684 19.5122 3.40984C17.9943 1.74684 15.8091 0.703491 13.3801 0.703491ZM25.1305 20.2157C25.037 20.1303 24.9452 20.0426 24.8552 19.9526L19.5122 14.6096L14.1692 19.9526C14.0792 20.0426 13.9874 20.1303 13.8938 20.2157C13.9874 20.301 14.0792 20.3887 14.1692 20.4787L19.5122 25.8217L24.8552 20.4787C24.9452 20.3887 25.037 20.301 25.1305 20.2157ZM21.6802 29.7858V31.4278C21.6802 33.617 23.455 35.3919 25.6443 35.3919C26.6956 35.3919 27.7039 34.9742 28.4473 34.2308L34.6884 27.9897V26.3478C34.6884 24.1585 32.9135 22.3837 30.7243 22.3837C29.673 22.3837 28.6647 22.8013 27.9213 23.5447L21.6802 29.7858ZM17.3442 29.7858L11.1031 23.5447C10.3597 22.8013 9.35145 22.3837 8.30011 22.3837C6.11082 22.3837 4.33604 24.1585 4.33604 26.3478V27.9897L10.5771 34.2308C11.3205 34.9742 12.3288 35.3919 13.3801 35.3919C15.5694 35.3919 17.3442 33.617 17.3442 31.4278V29.7858ZM17.3442 9.0036V10.6455L11.1031 16.8866C10.3597 17.63 9.35145 18.0477 8.30011 18.0477C6.11082 18.0477 4.33604 16.2728 4.33604 14.0836V12.4416L10.5771 6.20058C11.3205 5.45717 12.3288 5.03954 13.3801 5.03954C15.5694 5.03954 17.3442 6.81431 17.3442 9.0036ZM27.9213 16.8866L21.6802 10.6455V9.0036C21.6802 6.81431 23.455 5.03954 25.6443 5.03954C26.6956 5.03954 27.7039 5.45717 28.4473 6.20058L34.6884 12.4416V14.0836C34.6884 16.2728 32.9135 18.0477 30.7243 18.0477C29.673 18.0477 28.6647 17.63 27.9213 16.8866Z" fill="white"/>
</g>
<defs>
<clipPath id="clip0_123_66">
<rect width="39.0244" height="40" fill="white" transform="translate(0 0.199951)"/>
</clipPath>
</defs>
</svg>
